<svg width="500" height="500" viewBox="0 0 500 500" fill="none" xmlns="http://www.w3.org/2000/svg">
<g clip-path="url(#clip0_113_20)">
<rect width="500" height="500" fill="#C1C4DE"/>
<path d="M503.103 26.5935C481.808 77.6885 436.967 159.775 408.553 208.222C404.995 214.29 400.66 220.158 397.343 226.307C392.105 236.015 388.436 250.906 389.788 261.384C392.949 285.869 425.933 307.381 450.228 318.918C467.378 327.06 482.325 338.374 501.407 343.56" stroke="white" stroke-opacity="0.8" stroke-width="3" stroke-linecap="round"/>
<path d="M473.032 -11.564C445.705 57.9372 388.021 135.858 351.557 201.758C346.991 210.012 341.428 217.995 337.171 226.357C330.45 239.562 325.74 259.818 327.476 274.07C331.532 307.376 373.86 336.638 405.037 352.33C426.933 364.556 472.488 389.138 499.632 398.897" stroke="white" stroke-opacity="0.8" stroke-width="3" stroke-linecap="round"/>
<path d="M455.103 -86.7187C414.306 11.9331 362.003 97.4343 307.567 190.974C300.75 202.689 292.446 214.021 286.09 225.892C276.055 244.635 269.025 273.385 271.616 293.616C277.671 340.892 340.863 382.427 387.407 404.699C420.263 420.422 467.7 449.585 504.256 459.599" stroke="white" stroke-opacity="0.8" stroke-width="3" stroke-linecap="round"/>
</g>
<defs>
<clipPath id="clip0_113_20">
<rect width="500" height="500" fill="white"/>
</clipPath>
</defs>
</svg>
