<svg width="24" height="24" viewBox="0 0 24 24" fill="none" xmlns="http://www.w3.org/2000/svg">
<g clip-path="url(#clip0_101_6)">
<mask id="mask0_101_6" style="mask-type:luminance" maskUnits="userSpaceOnUse" x="0" y="0" width="24" height="24">
<path d="M24 0H0V24H24V0Z" fill="white"/>
</mask>
<g mask="url(#mask0_101_6)">
<path d="M23.4 12C23.4 18.296 18.296 23.4 12 23.4C5.70395 23.4 0.600006 18.296 0.600006 12C0.600006 5.70395 5.70395 0.600006 12 0.600006C18.296 0.600006 23.4 5.70395 23.4 12Z" fill="#FAFAFA" stroke="#990000"/>
<path fill-rule="evenodd" clip-rule="evenodd" d="M13.3063 7.422C13.046 7.71797 13.046 8.19785 13.3063 8.49381L15.7238 11.2421H6.66667C6.29848 11.2421 6 11.5814 6 12C6 12.4186 6.29848 12.7579 6.66667 12.7579H15.7238L13.3063 15.5062C13.046 15.8022 13.046 16.2821 13.3063 16.578C13.5667 16.874 13.9889 16.874 14.2492 16.578L17.8048 12.5359C18.065 12.2399 18.065 11.7601 17.8048 11.4641L14.2492 7.422C13.9889 7.12602 13.5667 7.12602 13.3063 7.422Z" fill="#990000"/>
</g>
</g>
<defs>
<clipPath id="clip0_101_6">
<rect width="24" height="24" fill="white"/>
</clipPath>
</defs>
</svg>
