<svg width="24" height="24" viewBox="0 0 24 24" fill="none" xmlns="http://www.w3.org/2000/svg">
<path d="M1.33334 20C0.95556 20 0.639116 19.872 0.384005 19.616C0.128894 19.36 0.000893486 19.0435 4.59769e-06 18.6667C-0.000884291 18.2898 0.127116 17.9733 0.384005 17.7173C0.640893 17.4613 0.957338 17.3333 1.33334 17.3333H22.6667C23.0444 17.3333 23.3613 17.4613 23.6173 17.7173C23.8733 17.9733 24.0009 18.2898 24 18.6667C23.9991 19.0435 23.8711 19.3604 23.616 19.6173C23.3609 19.8742 23.0444 20.0018 22.6667 20H1.33334ZM1.33334 13.3333C0.95556 13.3333 0.639116 13.2053 0.384005 12.9493C0.128894 12.6933 0.000893486 12.3769 4.59769e-06 12C-0.000884291 11.6231 0.127116 11.3067 0.384005 11.0507C0.640893 10.7947 0.957338 10.6667 1.33334 10.6667H22.6667C23.0444 10.6667 23.3613 10.7947 23.6173 11.0507C23.8733 11.3067 24.0009 11.6231 24 12C23.9991 12.3769 23.8711 12.6938 23.616 12.9507C23.3609 13.2075 23.0444 13.3351 22.6667 13.3333H1.33334ZM1.33334 6.66666C0.95556 6.66666 0.639116 6.53866 0.384005 6.28266C0.128894 6.02666 0.000893486 5.71022 4.59769e-06 5.33333C-0.000884291 4.95644 0.127116 4.64 0.384005 4.384C0.640893 4.128 0.957338 4 1.33334 4H22.6667C23.0444 4 23.3613 4.128 23.6173 4.384C23.8733 4.64 24.0009 4.95644 24 5.33333C23.9991 5.71022 23.8711 6.02711 23.616 6.284C23.3609 6.54089 23.0444 6.66844 22.6667 6.66666H1.33334Z" fill="#990000"/>
</svg>
