<svg width="24" height="24" viewBox="0 0 24 24" fill="none" xmlns="http://www.w3.org/2000/svg">
<g clip-path="url(#clip0_101_44)">
<mask id="mask0_101_44" style="mask-type:luminance" maskUnits="userSpaceOnUse" x="0" y="0" width="24" height="24">
<path d="M24 0H0V24H24V0Z" fill="white"/>
</mask>
<g mask="url(#mask0_101_44)">
<path d="M10.9915 1.35448C11.3627 0.454491 12.6373 0.454491 13.0086 1.35448L15.2394 6.76378C15.5462 7.50792 16.238 8.02264 17.0389 8.10289L22.6866 8.66875C23.6211 8.76238 24.0084 9.91466 23.32 10.5537L18.9542 14.6069C18.3921 15.1288 18.1453 15.9076 18.3043 16.6581L19.5608 22.5893C19.7599 23.5294 18.7345 24.2491 17.9182 23.7423L13.1507 20.7829C12.446 20.3453 11.554 20.3453 10.8493 20.7829L6.08187 23.7423C5.26553 24.2491 4.24017 23.5294 4.43929 22.5893L5.69575 16.6581C5.85471 15.9076 5.60792 15.1288 5.04576 14.6069L0.679949 10.5537C-0.00837271 9.91466 0.378876 8.76238 1.31343 8.66875L6.96113 8.10289C7.76207 8.02264 8.45375 7.50792 8.76064 6.76378L10.9915 1.35448Z" fill="#990000"/>
</g>
</g>
<defs>
<clipPath id="clip0_101_44">
<rect width="24" height="24" fill="white"/>
</clipPath>
</defs>
</svg>
